<svg xmlns="http://www.w3.org/2000/svg" viewBox="0 0 24 24"><path fill="#FCB400" d="M11.52 2.24L2.64 5.8c-.44.18-.44.8 0 .98l8.92 3.58c.28.12.6.12.88 0l8.92-3.58c.44-.18.44-.8 0-.98l-8.92-3.56a1.2 1.2 0 0 0-.92 0z"/><path fill="#18BFFF" d="M12.88 12.36v8.52c0 .4.42.68.78.52l9.04-3.76c.24-.1.4-.34.4-.6V8.52c0-.4-.42-.68-.78-.52l-9.04 3.76c-.24.1-.4.34-.4.6z"/><path fill="#F82B60" d="M11.12 12.36v8.52c0 .4-.42.68-.78.52L1.3 17.64c-.24-.1-.4-.34-.4-.6V8.52c0-.4.42-.68.78-.52l9.04 3.76c.24.1.4.34.4.6z"/></svg>