<svg xmlns="http://www.w3.org/2000/svg" viewBox="0 0 24 24"><path fill="#EA4B71" d="M12.63 3.89L9.19 7.33a1.5 1.5 0 0 0 0 2.12l3.44 3.44a1.5 1.5 0 0 0 2.12 0l3.44-3.44a1.5 1.5 0 0 0 0-2.12l-3.44-3.44a1.5 1.5 0 0 0-2.12 0z"/><path fill="#EA4B71" d="M5.81 11.11L2.37 14.55a1.5 1.5 0 0 0 0 2.12l3.44 3.44a1.5 1.5 0 0 0 2.12 0l3.44-3.44a1.5 1.5 0 0 0 0-2.12l-3.44-3.44a1.5 1.5 0 0 0-2.12 0z"/><path fill="#EA4B71" d="M16.85 12.88l1.22-1.22M7.15 12.88l-1.22-1.22" stroke="#EA4B71" stroke-width="1.5" stroke-linecap="round"/></svg>