<svg xmlns="http://www.w3.org/2000/svg" viewBox="0 0 24 24"><path fill="#fff" d="M4.46 2.96l10.1-.72c1.24-.1 1.56-.04 2.34.54l3.22 2.24c.54.4.72.5.72 .94v13.42c0 .84-.3 1.32-1.38 1.4l-12.06.7c-.78.04-1.16-.08-1.56-.58l-2.48-3.24c-.44-.58-.62-.98-.62-1.48V4.28c0-.64.3-1.24 1.32-1.32zM15.6 5.7c.14.56 0 1.1-.56 1.16l-.56.1v9.94c-.48.26-.94.4-1.32.4-.6 0-.76-.2-1.22-.78l-3.72-5.84v5.66l1.18.26s0 1.1-.76 1.1l-2.12.12c-.06-.14 0-.48.24-.54l.62-.16V7.72l-.86-.06c-.06-.56.18-1.36.98-1.42l2.28-.16 3.86 5.92V6.96l-.98-.12c-.06-.66.36-1.1.96-1.14l2.28-.14z"/></svg>