<svg xmlns="http://www.w3.org/2000/svg" viewBox="0 0 24 24"><path fill="#00A1E0" d="M10.05 5.14a4.49 4.49 0 0 1 3.39-1.56 4.49 4.49 0 0 1 4.2 2.9 3.9 3.9 0 0 1 1.64-.36A3.93 3.93 0 0 1 23.2 10a3.93 3.93 0 0 1-3.92 3.93H5.4A3.38 3.38 0 0 1 2 10.55a3.38 3.38 0 0 1 3.4-3.38c.15 0 .3.01.44.03a4.49 4.49 0 0 1 4.21-2.06z"/><path fill="#fff" d="M5.96 10.86l.72-2.24h.04l.68 2.24H5.96zm-.88 1.01h2.32l.36 1.13h1.08L7.28 8.64H6.32L4.76 13h1.02l.3-1.13zm4.76-1.56c0-.4.28-.68.68-.68.4 0 .68.28.68.68 0 .4-.28.68-.68.68-.4 0-.68-.28-.68-.68zm-.92 0c0 .88.68 1.52 1.6 1.52s1.6-.64 1.6-1.52c0-.88-.68-1.52-1.6-1.52s-1.6.64-1.6 1.52zm5.24-.56h-.96v-.56h-.88v.56h-.52v.76h.52v1.12c0 .68.36 1.04.96 1.04.24 0 .48-.06.64-.16v-.76c-.12.08-.24.12-.4.12-.2 0-.32-.12-.32-.36v-1h.96v-.76z"/></svg>