<svg fill="#00A1E0" role="img" viewBox="0 0 24 24" xmlns="http://www.w3.org/2000/svg"><path d="M10.006 5.415a4.195 4.195 0 013.045-1.31c1.506 0 2.839.793 3.588 1.984a5.073 5.073 0 011.9-.37C21.058 5.72 23.3 7.96 23.3 10.755c0 2.796-2.241 5.036-5.062 5.036-.346 0-.685-.034-1.012-.1-.66 1.117-1.87 1.869-3.252 1.869a3.735 3.735 0 01-1.503-.314A4.44 4.44 0 018.704 20a4.435 4.435 0 01-3.863-2.263 3.85 3.85 0 01-.597.047C1.9 17.784 0 15.884 0 13.539c0-1.571.856-2.944 2.126-3.676a4.262 4.262 0 01-.122-1.007c0-2.37 1.92-4.29 4.29-4.29 1.13 0 2.157.437 2.923 1.152"/></svg>
